<svg xmlns="http://www.w3.org/2000/svg" version="1.1" xmlns:xlink="http://www.w3.org/1999/xlink" width="1000" height="1000"><g clip-path="url(#SvgjsClipPath2322)"><rect width="1000" height="1000" fill="#ffffff"></rect><g transform="matrix(3.292181069958848,0,0,3.292181069958848,100,180.65843621399176)"><svg xmlns="http://www.w3.org/2000/svg" version="1.1" xmlns:xlink="http://www.w3.org/1999/xlink" width="243" height="194"><svg width="243" height="194" viewBox="0 0 243 194" fill="none" xmlns="http://www.w3.org/2000/svg">
<path d="M118 192H150V93.8418H205V66.0001H150V31.0001H241V2.00014H118V15.0001V85V121V192Z" fill="#380A56"></path>
<path d="M118 192H150V93.8418H205V66.0001H150V31.0001H241V2.00014H118V15.0001V85V121V192Z" fill="#380A56"></path>
<path d="M23 192H55L118 121L98 104.038L23 192Z" fill="#380A56"></path>
<path d="M118 121V85L55 32L81 2L2 2.00014L16 85L39 54L98 104.038L118 121Z" fill="#0B0A0B"></path>
<path d="M118 121L55 192H23L98 104.038M118 121V85M118 121V192H150V93.8418H205V66.0001H150V31.0001H241V2.00014H118V15.0001V85M118 121L39 54M118 121L98 104.038M98 104.038L39 54M118 85L55 32L81 2L2 2.00014L16 85L39 54" stroke="white" stroke-width="3"></path>
</svg></svg></g></g><defs><clipPath id="SvgjsClipPath2322"><rect width="1000" height="1000" x="0" y="0" rx="300" ry="300"></rect></clipPath></defs></svg>